<svg width="60" height="32" viewBox="0 0 60 32" fill="none" xmlns="http://www.w3.org/2000/svg">
<path d="M23.3253 21.694C22.5122 27.1353 19.5309 30.552 15.601 30.6152C14.7201 30.9948 13.7715 31.2479 12.8229 31.2479C9.0285 31.2479 5.23409 28.2109 2.32053 22.9595C-1.6094 15.8731 0.626592 5.0538 0.69435 4.61091C0.762107 4.23128 1.23641 3.9782 1.64295 4.16801C1.91398 4.29455 5.84391 5.9396 9.84159 8.78678C11.2645 5.9396 13.0939 3.21895 14.8556 1.13101C14.9912 1.00447 15.1944 0.87793 15.3977 0.87793C15.601 0.87793 15.8042 1.00447 15.9398 1.13101C17.0916 2.4597 18.7178 4.73745 20.073 7.14174C24.6127 4.35783 30.101 3.21895 30.7786 3.09241H30.8464C30.9141 3.09241 31.6595 3.02914 31.6595 3.66185C31.6595 4.04147 31.5239 13.279 26.9842 18.4672C25.7646 19.7959 24.5449 20.8715 23.3253 21.694Z" fill="#E9D4C6"/>
<path d="M23.3253 21.694C22.5122 27.1353 19.5309 30.552 15.601 30.6152C14.7201 30.9948 13.7715 31.2479 12.8229 31.2479C9.0285 31.2479 5.23409 28.2109 2.32053 22.9595C-1.6094 15.8731 0.626592 5.0538 0.69435 4.61091C0.762107 4.23128 1.23641 3.9782 1.64295 4.16801C1.91398 4.29455 5.84391 5.9396 9.84159 8.78678C11.2645 5.9396 13.0939 3.21895 14.8556 1.13101C14.9912 1.00447 15.1944 0.87793 15.3977 0.87793C15.601 0.87793 15.8042 1.00447 15.9398 1.13101C17.0916 2.4597 18.7178 4.73745 20.073 7.14174C24.6127 4.35783 30.101 3.21895 30.7786 3.09241H30.8464C30.9141 3.09241 31.6595 3.02914 31.6595 3.66185C31.6595 4.04147 31.5239 13.279 26.9842 18.4672C25.7646 19.7959 24.5449 20.8715 23.3253 21.694ZM25.9001 17.6447C28.3393 14.8608 29.4235 10.6849 29.8978 7.64791C28.5426 10.3686 26.3744 14.1648 23.5286 17.2651C23.5963 18.0876 23.5963 19.0367 23.5286 19.9225C24.3417 19.2897 25.087 18.5305 25.9001 17.6447ZM23.3253 15.4935C26.2389 11.9503 28.4071 7.64791 29.4912 5.30689C27.594 6.50903 24.6805 8.5337 21.9702 11.0013C22.58 12.3932 23.0543 14.0383 23.3253 15.4935ZM17.9047 22.39C18.7178 16.5691 17.2949 9.35622 15.4655 3.66185V3.59858C13.1617 10.7482 10.7902 22.9595 15.4655 28.9702C15.4655 28.9069 17.2949 26.8822 17.9047 22.39ZM3.4724 22.39C6.04718 27.0721 9.29953 29.7927 12.4841 29.9825C10.5869 29.0335 9.29953 27.2619 8.48645 25.3005C8.28317 24.731 4.21773 20.3653 1.50744 8.72351C1.16865 12.5198 1.16865 18.2141 3.4724 22.39ZM8.14766 12.8994C5.97942 10.1787 3.81119 7.96426 2.38828 6.57231C3.06586 9.67258 4.55652 15.8731 7.40233 21.1246C6.99578 17.8978 7.26681 15.4935 8.14766 12.8994ZM4.75979 7.14174C5.91167 8.34389 7.26681 9.79912 8.62196 11.4442C8.82523 10.938 9.0285 10.4318 9.23178 9.98893C7.74111 8.78678 6.11494 7.83772 4.75979 7.14174ZM8.62196 18.0876C8.62196 22.2002 9.70608 27.8946 13.907 29.16C9.63832 22.9595 11.5355 12.0769 13.636 4.99053C11.1967 8.5337 8.62196 13.8485 8.62196 18.0876ZM16.9561 29.16C22.2412 27.6415 23.2575 18.4672 21.1571 12.583C20.2085 9.98893 18.7856 7.39483 17.2949 5.11708C19.3276 12.2034 21.1571 22.9595 16.9561 29.16ZM21.4281 9.73585C23.3253 8.02753 25.358 6.50903 27.052 5.37016C25.1548 6.00287 22.7832 6.95193 20.7505 8.21735C20.7505 8.34389 21.1571 9.03987 21.4281 9.73585Z" fill="black"/>
<path d="M50.259 32H25.031C19.7636 32 15.5127 28.2039 15.5127 23.5C15.5127 18.7961 19.7636 15 25.031 15H50.259C55.5264 15 59.7772 18.7961 59.7772 23.5C59.7772 28.2039 55.5264 32 50.259 32Z" fill="#6DCBBA"/>
<path d="M22.8686 21.61C22.744 21.654 22.5203 21.7127 22.1976 21.786C21.875 21.852 21.622 21.896 21.4386 21.918L21.3176 21.148C21.7136 21.0673 22.1243 20.9243 22.5496 20.719C22.9823 20.5063 23.3343 20.2863 23.6056 20.059H23.6166L24.4856 20.18V26.23L25.7396 26.351V27H21.5486V26.351L22.8686 26.241V21.61ZM29.4577 27.11C28.5191 27.11 27.8004 26.7983 27.3017 26.175C26.8104 25.5443 26.5647 24.69 26.5647 23.612C26.5647 22.8493 26.7077 22.204 26.9937 21.676C27.2797 21.1407 27.6574 20.741 28.1267 20.477C28.6034 20.2057 29.1314 20.07 29.7107 20.07C30.6567 20.07 31.3681 20.3707 31.8447 20.972C32.3214 21.566 32.5597 22.4093 32.5597 23.502C32.5597 24.2573 32.4204 24.91 32.1417 25.46C31.8704 26.0027 31.5001 26.4133 31.0307 26.692C30.5614 26.9707 30.0371 27.11 29.4577 27.11ZM29.5677 26.45C30.0297 26.45 30.3671 26.2153 30.5797 25.746C30.7997 25.2693 30.9097 24.5617 30.9097 23.623C30.9097 22.6257 30.8071 21.896 30.6017 21.434C30.4037 20.9647 30.0627 20.73 29.5787 20.73C28.6694 20.73 28.2147 21.6503 28.2147 23.491C28.2147 24.4737 28.3211 25.2143 28.5337 25.713C28.7537 26.2043 29.0984 26.45 29.5677 26.45ZM36.6872 27.11C35.7486 27.11 35.0299 26.7983 34.5312 26.175C34.0399 25.5443 33.7942 24.69 33.7942 23.612C33.7942 22.8493 33.9372 22.204 34.2232 21.676C34.5092 21.1407 34.8869 20.741 35.3562 20.477C35.8329 20.2057 36.3609 20.07 36.9402 20.07C37.8862 20.07 38.5976 20.3707 39.0742 20.972C39.5509 21.566 39.7892 22.4093 39.7892 23.502C39.7892 24.2573 39.6499 24.91 39.3712 25.46C39.0999 26.0027 38.7296 26.4133 38.2602 26.692C37.7909 26.9707 37.2666 27.11 36.6872 27.11ZM36.7972 26.45C37.2592 26.45 37.5966 26.2153 37.8092 25.746C38.0292 25.2693 38.1392 24.5617 38.1392 23.623C38.1392 22.6257 38.0366 21.896 37.8312 21.434C37.6332 20.9647 37.2922 20.73 36.8082 20.73C35.8989 20.73 35.4442 21.6503 35.4442 23.491C35.4442 24.4737 35.5506 25.2143 35.7632 25.713C35.9832 26.2043 36.3279 26.45 36.7972 26.45ZM47.4807 18.739H48.5037L44.9727 27H43.9607L47.4807 18.739ZM42.9927 23.535C42.56 23.535 42.1897 23.4323 41.8817 23.227C41.5737 23.0217 41.339 22.743 41.1777 22.391C41.0164 22.039 40.9357 21.6503 40.9357 21.225C40.9357 20.7337 41.0347 20.3083 41.2327 19.949C41.4307 19.5823 41.6984 19.3037 42.0357 19.113C42.3804 18.9223 42.7617 18.827 43.1797 18.827C43.891 18.827 44.4117 19.0397 44.7417 19.465C45.079 19.8903 45.2477 20.455 45.2477 21.159C45.2477 21.6503 45.145 22.0757 44.9397 22.435C44.7417 22.7943 44.4704 23.0693 44.1257 23.26C43.781 23.4433 43.4034 23.535 42.9927 23.535ZM43.0807 22.875C43.3887 22.875 43.6124 22.7283 43.7517 22.435C43.8984 22.1343 43.9717 21.7237 43.9717 21.203C43.9717 20.7043 43.902 20.2973 43.7627 19.982C43.6307 19.6593 43.4144 19.498 43.1137 19.498C42.813 19.498 42.5894 19.6447 42.4427 19.938C42.296 20.2313 42.2227 20.6383 42.2227 21.159C42.2227 21.6283 42.2924 22.0317 42.4317 22.369C42.571 22.7063 42.7874 22.875 43.0807 22.875ZM49.2957 26.846C48.8704 26.846 48.5 26.7433 48.1847 26.538C47.8767 26.3253 47.642 26.0467 47.4807 25.702C47.3194 25.35 47.2387 24.9613 47.2387 24.536C47.2387 24.0447 47.3377 23.6193 47.5357 23.26C47.7337 22.8933 48.005 22.6147 48.3497 22.424C48.6944 22.2333 49.0757 22.138 49.4937 22.138C50.1977 22.138 50.7147 22.3507 51.0447 22.776C51.382 23.2013 51.5507 23.766 51.5507 24.47C51.5507 24.9613 51.448 25.3867 51.2427 25.746C51.0447 26.1053 50.7734 26.3803 50.4287 26.571C50.084 26.7543 49.7064 26.846 49.2957 26.846ZM49.3837 26.175C49.6917 26.175 49.9154 26.0283 50.0547 25.735C50.2014 25.4417 50.2747 25.0347 50.2747 24.514C50.2747 24.0227 50.205 23.6157 50.0657 23.293C49.9337 22.9703 49.721 22.809 49.4277 22.809C49.1197 22.809 48.8924 22.9557 48.7457 23.249C48.599 23.5423 48.5257 23.9493 48.5257 24.47C48.5257 24.9393 48.5954 25.3427 48.7347 25.68C48.874 26.01 49.0904 26.175 49.3837 26.175Z" fill="black"/>
</svg>
