<svg width="125" height="135" viewBox="0 0 125 135" fill="none" xmlns="http://www.w3.org/2000/svg">
<g clip-path="url(#clip0)">
<path d="M79.7701 112.454C75.8743 124.437 56.4585 128.85 36.3924 122.326C16.2621 115.676 3.15368 100.689 7.01854 88.8011C7.23497 88.1354 7.5465 87.5006 7.82711 86.9609C13.0304 76.4549 31.4404 72.8715 50.4604 79.0553C69.4805 85.2391 82.2633 98.9638 80.2625 110.616C80.1079 111.092 79.9865 111.788 79.7701 112.454Z" fill="#F7AD1A"/>
<path d="M80.1981 110.49C78.7618 112.968 75.9585 114.475 73.224 116.74C70.4895 119.006 67.1798 120.453 63.3758 119.217C61.4738 118.598 59.1342 118.679 57.1156 119.389C53.8986 120.552 50.1944 119.978 47.2725 118.292C44.7001 116.825 41.5 115.995 38.3378 116.018C33.2141 115.93 29.3745 114.156 26.1556 110.796C23.2553 107.75 19.8865 105.498 16.5556 104.1C11.639 102.081 9.46621 99.0608 8.8628 94.4482C8.52549 91.6046 7.49624 89.272 7.73188 86.9301C12.9352 76.4242 31.3452 72.8407 50.3652 79.0245C69.4161 85.1132 82.1989 98.838 80.1981 110.49Z" fill="#EE8034"/>
<path d="M81.7493 106.368C80.6671 109.696 77.4215 111.27 74.2472 113.918C71.5127 116.184 68.2029 117.631 64.3989 116.395C62.4969 115.776 60.1574 115.857 58.1387 116.568C54.8266 117.699 51.2175 117.156 48.2956 115.47C45.7233 114.003 42.5231 113.173 39.3609 113.196C34.2372 113.108 30.3976 111.334 27.1787 107.974C24.2784 104.928 20.9096 102.676 17.5479 101.373C12.5361 99.3227 10.3943 96.2079 9.79084 91.5953C9.38701 88.3094 8.10104 85.4728 8.99768 82.7149C12.3369 72.4441 31.289 69.4575 51.3551 75.9814C71.4212 82.5053 85.0885 96.097 81.7493 106.368Z" fill="#F7ADBB"/>
<path d="M84.0441 100.279C80.1484 112.262 60.7635 116.58 40.6973 110.056C20.6312 103.532 7.52282 88.5446 11.3877 76.6571C11.7587 75.5159 12.3199 74.4365 12.9763 73.388C18.9783 63.983 36.5704 60.9748 54.6394 66.8494C72.8035 72.7549 85.2631 85.5334 84.6508 96.7959C84.596 97.9348 84.4152 99.1378 84.0441 100.279Z" fill="#EE8034"/>
<path d="M84.4892 96.3227C78.392 105.697 60.7999 108.705 42.6358 102.799C24.5668 96.9249 12.1073 84.1464 12.6886 72.9789C18.8166 63.5097 36.4087 60.5015 54.4777 66.3761C72.6419 72.2816 85.1014 85.0601 84.4892 96.3227Z" fill="#F7AD1A"/>
<path d="M54.8832 74.1843C54.9469 78.5162 46.9721 82.0223 37.1693 82.095C27.3665 82.1676 19.3092 78.812 19.2146 74.5751C19.1509 70.2432 27.1257 66.7371 36.9285 66.6644C46.7622 66.4967 54.7885 69.9474 54.8832 74.1843Z" fill="#FFC928"/>
<path d="M61.3678 87.2283C60.9874 87.1046 60.771 87.7703 61.1514 87.894C61.6578 87.9534 61.8433 87.3828 61.3678 87.2283Z" fill="#EE8034"/>
<path d="M67.6333 83.4819C66.397 83.0799 65.7477 85.077 66.984 85.479C68.2203 85.8809 68.8696 83.8838 67.6333 83.4819Z" fill="#EE8034"/>
<path d="M49.6177 89.0864C48.3814 88.6844 47.763 90.5864 48.9993 90.9884C50.2356 91.3903 50.9491 89.5192 49.6177 89.0864Z" fill="#EE8034"/>
<path d="M32.6494 86.619L32.5543 86.5881C32.1739 86.4644 31.9575 87.1301 32.3379 87.2538L32.433 87.2847C32.8134 87.4084 33.0298 86.7427 32.6494 86.619Z" fill="#EE8034"/>
<path d="M49.6969 82.6978C49.6969 82.6978 49.6018 82.6669 49.6969 82.6978C49.4093 82.2888 48.7792 82.6097 48.9717 82.9878C49.131 83.1447 49.1952 83.2707 49.4805 83.3635C49.956 83.5181 50.1724 82.8524 49.6969 82.6978Z" fill="#EE8034"/>
<path d="M58.5309 71.3743C58.1505 71.2506 57.9341 71.9163 58.3145 72.04C58.6949 72.1636 58.9113 71.4979 58.5309 71.3743Z" fill="#EE8034"/>
<path d="M36.7003 91.301L36.415 91.2082C35.1787 90.8063 34.5603 92.7083 35.7966 93.1102L36.0819 93.203C37.4133 93.6358 38.0317 91.7338 36.7003 91.301Z" fill="#EE8034"/>
<path d="M18.6156 74.8008C18.2329 74.3609 17.6004 74.3656 17.1605 74.7483C16.9085 74.8767 16.7206 75.1311 16.6279 75.4164C16.4424 75.987 16.7942 76.522 17.2697 76.6765C17.7452 76.8311 18.2493 76.5744 18.499 76.1298C19.003 75.8731 18.9342 75.1147 18.6156 74.8008Z" fill="#EE8034"/>
<path d="M59.0249 99.6105C57.7886 99.2086 57.1393 101.206 58.3756 101.608C59.7379 101.945 60.3563 100.043 59.0249 99.6105Z" fill="#EE8034"/>
</g>
<path d="M108.623 23.0865C108.367 22.703 107.943 22.4834 107.527 22.2902C106.057 21.5896 104.533 20.948 102.912 20.7078C101.3 20.4723 99.5734 20.6507 98.1932 21.5162C99.7017 18.7049 101.505 16.0651 103.562 13.6302C103.406 13.4897 103.241 13.3446 103.085 13.2041C101.182 14.5604 99.7699 16.4826 98.6022 18.5049C97.4346 20.5272 96.4768 22.6527 95.3006 24.6703C96.3129 20.592 95.7609 16.1494 93.7811 12.4355C93.3097 12.5886 92.843 12.7332 92.3716 12.8863C93.9277 14.243 94.379 16.3051 94.6478 18.3564C94.9081 20.4031 95.0378 22.4451 94.5546 24.4524L94.0788 26.8736C94.5475 25.0355 95.9315 24.0614 97.6684 23.2129C99.6576 22.2471 101.028 22.0517 103.091 22.0898C104.528 22.1188 107.551 23.2445 108.494 24.3226C108.882 24.0577 108.885 23.4614 108.623 23.0865Z" fill="#E08CB8"/>
<path d="M94.084 26.865C94.0492 26.99 94.0229 27.1197 94.0052 27.254L94.084 26.865Z" fill="#E08CB8"/>
<path d="M96.236 22.4217L43.6654 64.5904C43.6654 64.5904 45.1473 70.3589 50.4946 75.3194C54.7361 79.2569 62.8524 83.7537 62.8524 83.7537C62.8524 83.7537 71.0339 88.1309 76.6429 89.5569C83.7112 91.3566 89.3607 89.471 89.3607 89.471L96.236 22.4217Z" fill="#46A5AA"/>
<path d="M92.3404 37.8221C92.9727 38.4321 93.6835 39.0406 94.4484 39.4682L94.8809 35.2736C93.5094 34.25 92.0835 33.2853 90.8392 32.1094C89.8228 31.1462 88.9421 30.0354 88.226 28.8259L86.0039 30.6063C87.9055 33.1812 90.0345 35.603 92.3404 37.8221Z" fill="#E08CB8"/>
<path d="M91.1264 67.2744C91.2686 67.3186 91.424 67.3589 91.5841 67.3907L92.0235 63.1224C88.6845 60.2965 84.8916 57.9987 81.6347 55.0625C77.5419 51.3609 74.377 46.6474 72.4787 41.4605L67.9002 45.1254C71.4924 49.1967 74.4706 53.7643 78.0271 57.8605C81.596 61.9745 85.9149 65.6883 91.1264 67.2744Z" fill="#E08CB8"/>
<path d="M90.7191 75.7796C90.5403 75.6601 90.3568 75.5492 90.178 75.4296C84.2059 71.6573 78.2003 67.8447 72.9627 63.1101C68.684 59.2409 64.9033 54.7015 62.4122 49.5242L57.0987 53.7856C64.0424 66.1165 75.2653 76.0039 88.3933 81.3134C88.9304 81.5283 89.5117 81.723 90.1045 81.8354L90.7191 75.7796Z" fill="#E08CB8"/>
<path d="M82.7383 34.9967C82.5125 34.5969 82.3007 34.1714 82.0936 33.7375L78.5365 36.5852C81.5211 41.2227 84.8751 45.6295 88.5489 49.7341C89.8573 51.1996 91.2487 52.655 93.0093 53.5139L93.5356 48.3736C89.2197 44.5728 85.5438 40.024 82.7383 34.9967Z" fill="#E08CB8"/>
<path d="M57.3336 76.3191C59.2632 78.9646 61.2007 81.6365 63.395 84.0606C65.3678 85.0794 71.8886 88.353 76.5907 89.551C77.7478 89.8488 78.8651 90.0363 79.9195 90.1563C79.7045 89.6959 79.3793 89.2752 79.0487 88.8848C76.2459 85.5423 72.6461 82.951 69.5918 79.826C63.799 73.892 60.1024 66.1644 54.3553 60.1667C53.6071 59.3827 52.8146 58.619 52.1339 57.7721L46.9415 61.9333C47.5578 62.8781 48.2231 63.7941 48.8759 64.6922C51.6949 68.5751 54.5185 72.4494 57.3336 76.3191Z" fill="#E08CB8"/>
<path opacity="0.34" d="M58.3253 59.8585C57.1317 60.8698 55.8876 61.9534 55.3447 63.4187C54.8018 64.8841 55.2306 66.8453 56.677 67.4667C57.6773 67.8896 58.8694 67.5529 59.7325 66.9043C60.5956 66.2557 61.22 65.333 61.8303 64.436C66.2782 57.9977 71.6661 52.2151 77.7643 47.3066C78.8082 46.4685 82.146 42.7815 78.7078 42.9473C76.7052 43.0419 73.6789 46.7878 72.1935 48.05C67.5749 51.9921 62.9478 55.9296 58.3253 59.8585Z" fill="white"/>
<path opacity="0.34" d="M81.2558 40.3032C81.131 40.5121 81.0054 40.7428 81.0275 40.9873C81.0591 41.4586 81.6024 41.7434 82.0646 41.7293C83.0023 41.6971 83.7176 40.9126 84.322 40.1896C85.1265 39.221 89.5838 34.9032 85.9774 35.3983C83.8336 35.6708 82.2017 38.6475 81.2558 40.3032Z" fill="white"/>
<path d="M106.558 30.7883C107.135 28.3229 106.242 25.566 104.317 23.9089C102.392 22.2518 99.5384 21.7722 97.1802 22.7032C98.3358 21.0288 99.8614 19.6112 101.613 18.5934C102.555 18.0434 103.642 17.5942 104.726 17.7631C104.662 17.3299 104.586 16.9005 104.522 16.4673C100.456 16.5238 96.5625 19.2769 95.1546 23.0843C95.3326 21.2099 94.2515 19.3476 92.7027 18.2828C91.1501 17.2048 89.1982 16.8398 87.3137 16.9212C86.9602 16.9392 86.5889 16.9696 86.3072 17.1817C85.7615 17.5934 85.8292 18.4055 85.9411 19.0756C87.7734 18.1129 90.1624 18.3062 91.8271 19.5448C93.4918 20.7835 94.3512 23.0124 93.9628 25.0492L94.623 26.3612C95.6574 24.665 97.7912 23.8001 99.7554 24.0611C101.728 24.3268 103.474 25.6205 104.517 27.3074C104.864 27.8725 105.151 28.5052 105.159 29.1629C105.162 29.8291 104.829 30.5226 104.222 30.8015C105.02 30.9038 105.796 30.905 106.558 30.7883Z" fill="#46A5AA"/>
<defs>
<clipPath id="clip0">
<rect width="76.8" height="58.7" fill="white" transform="translate(18.1494 54.5652) rotate(18.0103)"/>
</clipPath>
</defs>
</svg>
