<svg width="74" height="75" viewBox="0 0 74 75" fill="none" xmlns="http://www.w3.org/2000/svg">
<path d="M58.4906 27.2793C59.154 22.1774 56.9278 17.5239 52.5422 14.8361C52.1397 14.5855 51.7206 14.3464 51.2961 14.1147C44.5501 10.4329 36.4967 9.70684 29.201 12.1219C21.8064 14.5694 15.9296 19.8335 12.6528 26.9438C6.83419 39.581 11.3364 54.6928 23.1251 62.0945C23.6227 62.4074 24.127 62.7033 24.633 62.9794C24.9978 63.1785 25.3635 63.3665 25.7271 63.5443C30.3498 65.8093 35.6587 65.1742 39.5805 61.8867C43.7025 58.431 45.3275 53.0306 43.8206 47.7918C43.8206 47.7918 43.8206 47.7918 43.8202 47.7903C43.1636 45.5159 43.2787 43.5415 44.162 41.9231C45.0426 40.3097 46.6392 39.1477 48.9088 38.4691C54.1238 36.9067 57.7953 32.6194 58.4906 27.2793ZM42.1261 40.8119C40.9558 42.9562 40.7712 45.592 41.5924 48.4349C42.841 52.778 41.4988 57.2515 38.0906 60.1084C34.8324 62.8395 30.5925 63.3458 26.7457 61.4605C25.9478 61.0714 25.1424 60.6228 24.3594 60.1309C13.554 53.3459 9.42755 39.4959 14.7602 27.9146C17.7644 21.3936 23.1521 16.5669 29.9297 14.3233C36.6176 12.1094 44.0006 12.7753 50.1849 16.1506C50.5697 16.3606 50.9501 16.576 51.3234 16.8094C54.9135 19.0088 56.733 22.812 56.1898 26.9797C55.6157 31.4002 52.5703 34.9518 48.2442 36.2472C45.4091 37.0945 43.2937 38.6726 42.1261 40.8119Z" fill="#9FCE9E"/>
<path d="M49.3903 17.6087C47.1636 16.3934 44.3622 17.2165 43.1469 19.4433C41.9315 21.6701 42.7552 24.4705 44.982 25.6858C47.2088 26.9011 50.0086 26.0784 51.2239 23.8517C52.4393 21.6249 51.6171 18.8241 49.3903 17.6087ZM46.0932 23.6499C44.9887 23.0471 44.58 21.6589 45.1828 20.5545C45.7856 19.4501 47.1747 19.0419 48.2792 19.6447C49.3836 20.2474 49.7908 21.636 49.188 22.7405C48.5852 23.8449 47.1976 24.2527 46.0932 23.6499Z" fill="#9FCE9E"/>
<path d="M30.946 51.4032C28.7192 50.1878 25.9184 51.01 24.7031 53.2368C23.4877 55.4635 24.3109 58.2649 26.5377 59.4802C28.7645 60.6956 31.5648 59.8719 32.7801 57.6451C33.9955 55.4183 33.1728 52.6185 30.946 51.4032ZM27.6488 57.4443C26.5444 56.8415 26.1362 55.4524 26.739 54.3479C27.3418 53.2435 28.7304 52.8363 29.8348 53.4391C30.9393 54.0419 31.347 55.4295 30.7442 56.5339C30.1414 57.6384 28.7533 58.0471 27.6488 57.4443Z" fill="#9FCE9E"/>
<path d="M25.1053 31.526C26.3206 29.2992 25.4985 26.4984 23.2717 25.2831C21.0449 24.0677 18.2436 24.8909 17.0282 27.1176C15.8129 29.3444 16.6366 32.1448 18.8634 33.3601C21.0901 34.5755 23.8899 33.7528 25.1053 31.526ZM19.9745 31.3242C18.8701 30.7214 18.4614 29.3333 19.0641 28.2288C19.6669 27.1244 21.0561 26.7162 22.1605 27.319C23.265 27.9218 23.6722 29.3104 23.0694 30.4148C22.4666 31.5192 21.079 31.927 19.9745 31.3242Z" fill="#9FCE9E"/>
<path d="M18.1975 39.5566C15.7639 40.2734 14.3657 42.8352 15.0805 45.2677C15.4263 46.4473 16.2123 47.4208 17.2909 48.0095C18.3695 48.5981 19.613 48.7311 20.7916 48.3847C21.9702 48.0384 22.9442 47.2539 23.5328 46.1753C24.1215 45.0967 24.256 43.8528 23.9086 42.6736C23.1934 40.2396 20.6316 38.8414 18.1975 39.5566ZM20.1378 46.1596C18.9669 46.5037 17.6497 45.7848 17.3056 44.6139C16.9511 43.4076 17.6445 42.1371 18.8514 41.7817C20.0581 41.4288 21.3276 42.1216 21.6836 43.3275C21.8556 43.9129 21.7888 44.5293 21.4969 45.0642C21.205 45.599 20.7233 45.9876 20.1378 46.1596Z" fill="#9FCE9E"/>
<path d="M31.239 15.6614C28.8065 16.3762 27.4083 18.938 28.122 21.3725C28.4796 22.5896 29.2996 23.548 30.3335 24.1123C31.3674 24.6766 32.6161 24.8472 33.8331 24.4896C35.0127 24.1438 35.9862 23.3578 36.5749 22.2792C37.1636 21.2006 37.2975 19.9576 36.9502 18.7785C36.2586 16.4192 33.5974 14.9668 31.239 15.6614ZM33.1793 22.2645C31.9715 22.6194 30.702 21.9265 30.3471 20.7187C29.9932 19.5114 30.6866 18.241 31.8929 17.8865C32.4783 17.7145 33.0948 17.7813 33.6296 18.0732C34.1644 18.3651 34.553 18.8468 34.7251 19.4323C34.8971 20.0178 34.8309 20.6332 34.539 21.168C34.2471 21.7028 33.7648 22.0924 33.1793 22.2645Z" fill="#9FCE9E"/>
<path d="M63.5928 43.2464L65.2288 37.5875C66.3049 37.189 67.2547 36.4354 67.8461 35.3518C68.9486 33.3318 68.5738 27.1535 68.4873 25.9361C68.4326 25.1475 67.4652 24.6221 66.7735 25.0007C65.7023 25.5876 60.3049 28.6142 59.2024 30.6342C58.6109 31.718 58.4907 32.9246 58.7377 34.0453L54.8636 38.4821C54.8312 38.5194 54.8223 38.5689 54.7952 38.6093C54.7605 38.6604 54.7119 38.6998 54.6855 38.7565L43.3584 63.1011C42.6502 64.6589 43.2729 66.5225 44.776 67.3428C46.28 68.1637 48.1843 67.6793 49.1172 66.2325L63.4584 43.5446C63.4918 43.4917 63.4987 43.4295 63.5229 43.3727C63.5422 43.3281 63.579 43.2939 63.5928 43.2464ZM47.1627 64.9839C46.8896 65.4063 46.3295 65.5484 45.8871 65.3069C45.4448 65.0655 45.2622 64.5182 45.4659 64.0694L56.2672 40.8558L60.8371 43.35L47.1627 64.9839ZM57.5613 38.9198L59.8754 36.2698C60.2389 36.6756 60.6599 37.0396 61.1647 37.3151C61.6697 37.5907 62.2041 37.748 62.7423 37.8342L61.7654 41.2143L57.5613 38.9198ZM62.2758 35.2791C61.0153 34.5912 60.5503 33.0059 61.2383 31.7454C61.6935 30.9113 64.0905 29.2688 66.2675 27.9656C66.3501 30.5021 66.2659 33.4056 65.8102 34.2406C65.1222 35.5011 63.5364 35.9671 62.2758 35.2791Z" fill="#9FCE9E"/>
</svg>
