<svg width="60" height="60" viewBox="0 0 60 60" fill="none" xmlns="http://www.w3.org/2000/svg">
<path d="M57.5619 2.43827V57.5619H2.43827V2.43827H57.5619ZM57.5619 0.90918H2.43827C1.59727 0.90918 0.90918 1.59727 0.90918 2.43827V57.5619C0.90918 58.4029 1.59727 59.091 2.43827 59.091H57.5619C58.4029 59.091 59.091 58.4029 59.091 57.5619V2.43827C59.091 1.59727 58.4029 0.90918 57.5619 0.90918Z" fill="#F4976E"/>
<path d="M30.8028 17.8056C30.8028 17.1939 30.5735 16.6587 30.1912 16.2765C30.5735 15.8942 30.8028 15.359 30.8028 14.7474C30.8028 13.677 30.1147 12.836 29.1973 12.5302C28.4327 8.93685 25.2981 6.3374 21.5518 6.3374H15.5119C11.7657 6.3374 8.63104 9.01331 7.94295 12.5302C7.02549 12.836 6.3374 13.677 6.3374 14.7474C6.3374 15.359 6.56677 15.8942 6.94904 16.2765C6.56677 16.6587 6.3374 17.1939 6.3374 17.8056C6.3374 18.8759 7.02549 19.7169 7.94295 20.0227C8.63104 23.6161 11.8421 26.2156 15.5119 26.2156H21.5518C25.2216 26.2156 28.4327 23.5396 29.1208 20.0227C30.1147 19.7169 30.8028 18.7995 30.8028 17.8056ZM15.5119 7.86649H21.5518C24.3806 7.86649 26.8272 9.77785 27.5153 12.4538H27.2095L27.0566 12.3008C26.6743 11.9186 26.1391 11.6892 25.6039 11.6892H25.1452C24.61 11.6892 24.0748 11.9186 23.6926 12.3008C23.6161 12.3773 23.4632 12.4538 23.3103 12.4538H22.8516C22.6987 12.4538 22.5457 12.3773 22.4693 12.3008C22.087 11.9186 21.5518 11.6892 21.0167 11.6892H20.5579C20.0227 11.6892 19.4876 11.9186 19.1053 12.3008C19.0288 12.3773 18.8759 12.4538 18.723 12.4538H18.2643C18.1114 12.4538 17.9585 12.3773 17.882 12.3008C17.4997 11.9186 16.9646 11.6892 16.4294 11.6892H15.9707C15.4355 11.6892 14.9003 11.9186 14.518 12.3008C14.4416 12.3773 14.2887 12.4538 14.1358 12.4538H13.677C13.5241 12.4538 13.3712 12.3773 13.2948 12.3008C12.9125 11.9186 12.3773 11.6892 11.8421 11.6892H11.3834C10.8482 11.6892 10.313 11.9186 9.93076 12.3008L9.77785 12.4538H9.47203C10.2366 9.77785 12.6831 7.86649 15.5119 7.86649ZM8.63104 13.9828H10.4659L11.0776 13.3712C11.154 13.2948 11.3069 13.2183 11.4598 13.2183H11.9186C12.0715 13.2183 12.2244 13.2948 12.3008 13.3712C12.6831 13.7535 13.2183 13.9828 13.7535 13.9828H14.2122C14.7474 13.9828 15.2826 13.7535 15.6648 13.3712C15.7413 13.2948 15.8942 13.2183 16.0471 13.2183H16.5058C16.6587 13.2183 16.8117 13.2948 16.8881 13.3712C17.2704 13.7535 17.8056 13.9828 18.3407 13.9828H18.7995C19.3347 13.9828 19.8698 13.7535 20.2521 13.3712C20.3286 13.2948 20.4815 13.2183 20.6344 13.2183H21.0931C21.246 13.2183 21.3989 13.2948 21.4754 13.3712C21.8577 13.7535 22.3928 13.9828 22.928 13.9828H23.3867C23.9219 13.9828 24.4571 13.7535 24.8394 13.3712C24.9158 13.2948 25.0687 13.2183 25.2216 13.2183H25.6804C25.8333 13.2183 25.9862 13.2948 26.0626 13.3712L26.6743 13.9828H28.5092C28.9679 13.9828 29.2737 14.2887 29.2737 14.7474C29.2737 15.2061 28.9679 15.5119 28.5092 15.5119H8.63104C8.17231 15.5119 7.86649 15.2061 7.86649 14.7474C7.86649 14.2887 8.17231 13.9828 8.63104 13.9828ZM8.63104 17.041H28.5092C28.9679 17.041 29.2737 17.3468 29.2737 17.8056C29.2737 18.2643 28.9679 18.5701 28.5092 18.5701H8.63104C8.17231 18.5701 7.86649 18.2643 7.86649 17.8056C7.86649 17.3468 8.17231 17.041 8.63104 17.041ZM21.5518 24.6865H15.5119C12.6831 24.6865 10.2366 22.7751 9.54849 20.0992H27.5917C26.8272 22.7751 24.3806 24.6865 21.5518 24.6865Z" fill="#F4976E"/>
<path d="M52.0571 40.0536C51.369 36.4603 48.1579 33.8608 44.4881 33.8608H38.4482C34.7784 33.8608 31.5673 36.5367 30.8792 40.0536C29.9618 40.3595 29.2737 41.2005 29.2737 42.2708C29.2737 42.8825 29.503 43.4176 29.8853 43.7999C29.503 44.1822 29.2737 44.7174 29.2737 45.329C29.2737 46.3994 29.9618 47.2404 30.8792 47.5462C31.5673 51.1395 34.7784 53.739 38.4482 53.739H44.4881C48.1579 53.739 51.369 51.0631 52.0571 47.5462C52.9746 47.2404 53.6626 46.3994 53.6626 45.329C53.6626 44.7174 53.4333 44.1822 53.051 43.7999C53.4333 43.4176 53.6626 42.8825 53.6626 42.2708C53.7391 41.2005 53.051 40.3595 52.0571 40.0536ZM38.4482 35.3899H44.4881C47.3169 35.3899 49.7635 37.3013 50.4516 39.9772H50.1457L49.9928 39.8243C49.6106 39.442 49.0754 39.2126 48.5402 39.2126H48.0815C47.5463 39.2126 47.0111 39.442 46.6288 39.8243C46.5524 39.9007 46.3995 39.9772 46.2466 39.9772H45.7878C45.6349 39.9772 45.482 39.9007 45.4056 39.8243C45.0233 39.442 44.4881 39.2126 43.9529 39.2126H43.4942C42.959 39.2126 42.4238 39.442 42.0416 39.8243C41.9651 39.9007 41.8122 39.9772 41.6593 39.9772H41.2006C41.0477 39.9772 40.8948 39.9007 40.8183 39.8243C40.436 39.442 39.9008 39.2126 39.3657 39.2126H38.9069C38.3718 39.2126 37.8366 39.442 37.4543 39.8243C37.3779 39.9007 37.2249 39.9772 37.072 39.9772H36.6133C36.4604 39.9772 36.3075 39.9007 36.231 39.8243C35.8488 39.442 35.3136 39.2126 34.7784 39.2126H34.3197C33.7845 39.2126 33.2493 39.442 32.867 39.8243L32.7141 39.9772H32.4083C33.1729 37.3013 35.6194 35.3899 38.4482 35.3899ZM31.5673 41.5063H33.4022L34.0139 40.8946C34.0903 40.8182 34.2432 40.7417 34.3961 40.7417H34.8549C35.0078 40.7417 35.1607 40.8182 35.2371 40.8946C35.6194 41.2769 36.1546 41.5063 36.6898 41.5063H37.1485C37.6837 41.5063 38.2189 41.2769 38.6011 40.8946C38.6776 40.8182 38.8305 40.7417 38.9834 40.7417H39.4421C39.595 40.7417 39.7479 40.8182 39.8244 40.8946C40.2067 41.2769 40.7418 41.5063 41.277 41.5063H41.7358C42.2709 41.5063 42.8061 41.2769 43.1884 40.8946C43.2648 40.8182 43.4178 40.7417 43.5707 40.7417H44.0294C44.1823 40.7417 44.3352 40.8182 44.4117 40.8946C44.7939 41.2769 45.3291 41.5063 45.8643 41.5063H46.323C46.8582 41.5063 47.3934 41.2769 47.7757 40.8946C47.8521 40.8182 48.005 40.7417 48.1579 40.7417H48.6167C48.7696 40.7417 48.9225 40.8182 48.9989 40.8946L49.6106 41.5063H51.4455C51.9042 41.5063 52.21 41.8121 52.21 42.2708C52.21 42.7296 51.9042 43.0354 51.4455 43.0354H31.5673C31.1086 43.0354 30.8028 42.7296 30.8028 42.2708C30.8028 41.8121 31.1086 41.5063 31.5673 41.5063ZM44.4881 52.2099H38.4482C35.6194 52.2099 33.1729 50.2985 32.4848 47.6226H50.528C49.7635 50.2985 47.3169 52.2099 44.4881 52.2099ZM51.4455 46.0935H31.5673C31.1086 46.0935 30.8028 45.7877 30.8028 45.329C30.8028 44.8703 31.1086 44.5645 31.5673 44.5645H51.4455C51.9042 44.5645 52.21 44.8703 52.21 45.329C52.21 45.7877 51.8277 46.0935 51.4455 46.0935Z" fill="#F4976E"/>
<path d="M19.9463 30.8795C19.6405 29.962 18.7995 29.2739 17.7292 29.2739C17.1175 29.2739 16.5823 29.5033 16.2001 29.8856C15.8178 29.5033 15.2826 29.2739 14.671 29.2739C13.6006 29.2739 12.7596 29.962 12.4538 30.8795C8.86044 31.5676 6.26099 34.7786 6.26099 38.4485V44.4884C6.26099 48.1582 8.93689 51.3693 12.4538 52.0573C12.7596 52.9748 13.6006 53.6629 14.671 53.6629C15.2826 53.6629 15.8178 53.4335 16.2001 53.0513C16.5823 53.4335 17.1175 53.6629 17.7292 53.6629C18.7995 53.6629 19.6405 52.9748 19.9463 52.0573C23.5397 51.3693 26.1391 48.1582 26.1391 44.4884V38.4485C26.2156 34.7786 23.5397 31.5676 19.9463 30.8795ZM7.86653 44.4884V38.4485C7.86653 35.6196 9.77789 33.1731 12.4538 32.485V32.7908L12.3009 32.9437C11.9186 33.326 11.6893 33.8612 11.6893 34.3964V34.8551C11.6893 35.3903 11.9186 35.9255 12.3009 36.3077C12.3773 36.3842 12.4538 36.5371 12.4538 36.69V37.1487C12.4538 37.3016 12.3773 37.4546 12.3009 37.531C11.9186 37.9133 11.6893 38.4485 11.6893 38.9836V39.4424C11.6893 39.9775 11.9186 40.5127 12.3009 40.895C12.3773 40.9715 12.4538 41.1244 12.4538 41.2773V41.736C12.4538 41.8889 12.3773 42.0418 12.3009 42.1183C11.9186 42.5005 11.6893 43.0357 11.6893 43.5709V44.0296C11.6893 44.5648 11.9186 45.1 12.3009 45.4823C12.3773 45.5587 12.4538 45.7116 12.4538 45.8645V46.3233C12.4538 46.4762 12.3773 46.6291 12.3009 46.7055C11.9186 47.0878 11.6893 47.623 11.6893 48.1582V48.6169C11.6893 49.1521 11.9186 49.6873 12.3009 50.0695L12.4538 50.2224V50.5283C9.77789 49.7637 7.86653 47.3172 7.86653 44.4884ZM14.7474 52.2103C14.2887 52.2103 13.9829 51.9044 13.9829 51.4457V49.6108L13.3712 48.9992C13.2948 48.9227 13.2183 48.7698 13.2183 48.6169V48.1582C13.2183 48.0053 13.2948 47.8524 13.3712 47.7759C13.7535 47.3936 13.9829 46.8584 13.9829 46.3233V45.8645C13.9829 45.3294 13.7535 44.7942 13.3712 44.4119C13.2948 44.3355 13.2183 44.1825 13.2183 44.0296V43.5709C13.2183 43.418 13.2948 43.2651 13.3712 43.1886C13.7535 42.8064 13.9829 42.2712 13.9829 41.736V41.2773C13.9829 40.7421 13.7535 40.2069 13.3712 39.8246C13.2948 39.7482 13.2183 39.5953 13.2183 39.4424V38.9836C13.2183 38.8307 13.2948 38.6778 13.3712 38.6014C13.7535 38.2191 13.9829 37.6839 13.9829 37.1487V36.69C13.9829 36.1548 13.7535 35.6196 13.3712 35.2374C13.2948 35.1609 13.2183 35.008 13.2183 34.8551V34.3964C13.2183 34.2435 13.2948 34.0906 13.3712 34.0141L13.9829 33.4025V31.5676C13.9829 31.1088 14.2887 30.803 14.7474 30.803C15.2062 30.803 15.512 31.1088 15.512 31.5676V51.4457C15.512 51.828 15.1297 52.2103 14.7474 52.2103ZM18.5702 51.4457C18.5702 51.9044 18.2643 52.2103 17.8056 52.2103C17.3469 52.2103 17.0411 51.9044 17.0411 51.4457V31.5676C17.0411 31.1088 17.3469 30.803 17.8056 30.803C18.2643 30.803 18.5702 31.1088 18.5702 31.5676V51.4457ZM24.6865 44.4884C24.6865 47.3172 22.7751 49.7637 20.0992 50.4518V32.485C22.7751 33.1731 24.6865 35.6196 24.6865 38.4485V44.4884Z" fill="#F4976E"/>
<path d="M47.4698 7.94295C47.164 7.02549 46.323 6.3374 45.2526 6.3374C44.641 6.3374 44.1058 6.56677 43.7235 6.94904C43.3412 6.56677 42.806 6.3374 42.1944 6.3374C41.124 6.3374 40.283 7.02549 39.9772 7.94295C36.3839 8.63104 33.7844 11.8421 33.7844 15.5119V21.5518C33.7844 25.2216 36.4603 28.4327 39.9772 29.1208C40.283 30.0383 41.124 30.7264 42.1944 30.7264C42.806 30.7264 43.3412 30.497 43.7235 30.1147C44.1058 30.497 44.641 30.7264 45.2526 30.7264C46.323 30.7264 47.164 30.0383 47.4698 29.1208C51.0631 28.4327 53.6626 25.2216 53.6626 21.5518V15.5119C53.739 11.8421 51.0631 8.63104 47.4698 7.94295ZM35.39 21.5518V15.5119C35.39 12.6831 37.3013 10.2366 39.9772 9.54849V27.5917C37.3013 26.8272 35.39 24.3806 35.39 21.5518ZM42.2709 29.2737C41.8121 29.2737 41.5063 28.9679 41.5063 28.5092V8.63104C41.5063 8.17231 41.8121 7.86649 42.2709 7.86649C42.7296 7.86649 43.0354 8.17231 43.0354 8.63104V28.5092C43.0354 28.8915 42.6531 29.2737 42.2709 29.2737ZM46.0936 26.6743V28.5092C46.0936 28.9679 45.7878 29.2737 45.329 29.2737C44.8703 29.2737 44.5645 28.9679 44.5645 28.5092V8.63104C44.5645 8.17231 44.8703 7.86649 45.329 7.86649C45.7878 7.86649 46.0936 8.17231 46.0936 8.63104V10.4659L46.7052 11.0776C46.7817 11.154 46.8581 11.3069 46.8581 11.4598V11.9186C46.8581 12.0715 46.7817 12.2244 46.7052 12.3008C46.323 12.6831 46.0936 13.2183 46.0936 13.7535V14.2122C46.0936 14.7474 46.323 15.2826 46.7052 15.6648C46.7817 15.7413 46.8581 15.8942 46.8581 16.0471V16.5058C46.8581 16.6587 46.7817 16.8117 46.7052 16.8881C46.323 17.2704 46.0936 17.8056 46.0936 18.3407V18.7995C46.0936 19.3347 46.323 19.8698 46.7052 20.2521C46.7817 20.3286 46.8581 20.4815 46.8581 20.6344V21.0931C46.8581 21.246 46.7817 21.3989 46.7052 21.4754C46.323 21.8576 46.0936 22.3928 46.0936 22.928V23.3867C46.0936 23.9219 46.323 24.4571 46.7052 24.8394C46.7817 24.9158 46.8581 25.0687 46.8581 25.2216V25.6804C46.8581 25.8333 46.7817 25.9862 46.7052 26.0626L46.0936 26.6743ZM52.2099 21.5518C52.2099 24.3806 50.2986 26.8272 47.6227 27.5153V27.2095L47.7756 27.0566C48.1579 26.6743 48.3872 26.1391 48.3872 25.6039V25.1452C48.3872 24.61 48.1579 24.0748 47.7756 23.6926C47.6991 23.6161 47.6227 23.4632 47.6227 23.3103V22.8516C47.6227 22.6987 47.6991 22.5457 47.7756 22.4693C48.1579 22.087 48.3872 21.5518 48.3872 21.0167V20.5579C48.3872 20.0227 48.1579 19.4876 47.7756 19.1053C47.6991 19.0288 47.6227 18.8759 47.6227 18.723V18.2643C47.6227 18.1114 47.6991 17.9585 47.7756 17.882C48.1579 17.4997 48.3872 16.9646 48.3872 16.4294V15.9707C48.3872 15.4355 48.1579 14.9003 47.7756 14.518C47.6991 14.4416 47.6227 14.2887 47.6227 14.1358V13.677C47.6227 13.5241 47.6991 13.3712 47.7756 13.2948C48.1579 12.9125 48.3872 12.3773 48.3872 11.8421V11.3834C48.3872 10.8482 48.1579 10.313 47.7756 9.93076L47.6227 9.77785V9.47203C50.2986 10.1601 52.2099 12.6067 52.2099 15.4355V21.5518Z" fill="#F4976E"/>
</svg>
