<svg width="67" height="54" viewBox="0 0 67 54" fill="none" xmlns="http://www.w3.org/2000/svg">
<g clip-path="url(#clip0)">
<path d="M63.3187 35.2957C62.2661 45.4123 47.6843 52.1733 30.743 50.4106C13.7298 48.5592 0.85225 38.941 1.89654 28.9046C1.95502 28.3426 2.09379 27.7889 2.22421 27.3155C4.55824 18.1439 18.4861 12.2076 34.5442 13.8784C50.6023 15.5493 63.0097 24.2258 63.3972 33.7618C63.3554 34.1633 63.3772 34.7337 63.3187 35.2957Z" fill="#78CCCA"/>
<path d="M63.3255 33.673C62.6098 35.8711 60.6513 37.5339 58.8751 39.7839C57.099 42.0339 54.7306 43.7353 51.519 43.4011C49.9132 43.2341 48.08 43.6926 46.6064 44.5943C44.2631 46.0549 41.2423 46.2275 38.6512 45.3898C36.3729 44.6658 33.7066 44.5506 31.2143 45.1029C27.1548 45.8979 23.8243 45.1456 20.7162 43.0367C17.9126 41.1217 14.8731 39.9127 12.0077 39.3711C7.78575 38.6072 5.56083 36.5901 4.30591 33.0509C3.55963 30.8631 2.35343 29.1955 2.14412 27.3071C4.47816 18.1354 18.406 12.1991 34.4641 13.8699C50.5306 15.4605 62.938 24.137 63.3255 33.673Z" fill="#5EC4BA"/>
<path d="M63.8537 30.1571C63.5613 32.9672 61.2649 34.7573 59.2061 37.3837C57.4299 39.6336 55.0616 41.3351 51.85 41.0009C50.2441 40.8338 48.4109 41.2923 46.9374 42.1941C44.5138 43.6463 41.5732 43.8272 38.9821 42.9895C36.7038 42.2655 34.0375 42.1504 31.5453 42.7027C27.4857 43.4977 24.1553 42.7453 21.0472 40.6364C18.2435 38.7215 15.2041 37.5125 12.3303 37.0511C8.02806 36.2788 5.8115 34.1815 4.55657 30.6422C3.68313 28.1166 2.18918 26.0944 2.43145 23.766C3.33372 15.0946 17.7902 9.53796 34.7315 11.3007C51.7531 13.0718 64.7559 21.4857 63.8537 30.1571Z" fill="#EB5660"/>
<path d="M64.4217 24.6973C63.3691 34.8139 48.7956 41.4946 31.8543 39.7319C14.8328 37.9608 1.95522 28.3425 2.99951 18.3062C3.09976 17.3427 3.3606 16.396 3.70172 15.4575C6.94076 6.94816 20.3201 1.60403 35.5753 3.19135C50.9107 4.78702 62.9032 12.7711 64.321 21.765C64.47 22.6733 64.5303 23.6535 64.4217 24.6973Z" fill="#5EC4BA"/>
<path d="M64.2457 22.4877C61.0067 30.9971 47.6274 36.3412 32.2919 34.7455C17.0367 33.1582 5.04424 25.1741 3.62644 16.1802C6.86548 7.67079 20.2448 2.32666 35.5 3.91398C50.8355 5.50966 62.8279 13.4937 64.2457 22.4877Z" fill="#78CCCA"/>
<path d="M37.2136 9.28654C37.9952 12.6954 32.2917 16.8092 24.5657 18.5213C16.8314 20.3136 9.91293 18.9445 9.12304 15.6159C8.3415 12.207 14.0449 8.0932 21.7709 6.38115C29.5053 4.58881 36.4237 5.95796 37.2136 9.28654Z" fill="#9BD7D5"/>
<path d="M44.5343 18.4889C44.2132 18.4555 44.1547 19.0175 44.4758 19.051C44.8857 19.0124 44.9358 18.5307 44.5343 18.4889Z" fill="#5EC4BA"/>
<path d="M48.8478 14.4738C47.804 14.3652 47.6369 15.971 48.6807 16.0796C49.7245 16.1882 49.8916 14.5824 48.8478 14.4738Z" fill="#5EC4BA"/>
<path d="M35.5724 21.9389C34.5286 21.8303 34.3532 23.5164 35.3969 23.625C36.521 23.7419 36.6965 22.0558 35.5724 21.9389Z" fill="#5EC4BA"/>
<path d="M21.7611 22.8554L21.6808 22.8471C21.3597 22.8137 21.3012 23.3757 21.6223 23.4091L21.7026 23.4175C22.0238 23.4509 22.0823 22.8889 21.7611 22.8554Z" fill="#5EC4BA"/>
<path d="M34.5566 16.8826L34.4763 16.8743C34.2605 16.6083 33.8173 16.968 34.0331 17.2339C34.1853 17.3309 34.2572 17.4196 34.4981 17.4446C34.8996 17.4864 34.958 16.9244 34.5566 16.8826Z" fill="#5EC4BA"/>
<path d="M39.6183 6.45255C39.2972 6.41914 39.2387 6.98117 39.5598 7.01459C39.881 7.048 39.9395 6.48597 39.6183 6.45255Z" fill="#7AC143"/>
<path d="M25.7493 25.8675L25.5084 25.8424C24.4646 25.7338 24.2892 27.4199 25.333 27.5285L25.5738 27.5536C26.7063 27.5903 26.8734 25.9845 25.7493 25.8675Z" fill="#5EC4BA"/>
<path d="M8.68812 15.8951C8.31173 15.6124 7.81328 15.7229 7.53064 16.0993C7.35335 16.2432 7.248 16.4757 7.22293 16.7166C7.17281 17.1983 7.54084 17.5612 7.94229 17.603C8.34375 17.6448 8.69833 17.357 8.82039 16.9639C9.17497 16.6762 8.99258 16.0891 8.68812 15.8951Z" fill="#5EC4BA"/>
<path d="M44.7745 28.6588C43.7308 28.5502 43.5637 30.1561 44.6074 30.2647C45.6512 30.3733 45.8986 28.7758 44.7745 28.6588Z" fill="#5EC4BA"/>
</g>
<defs>
<clipPath id="clip0">
<rect width="61.7538" height="47.3849" fill="white" transform="translate(4.9043) rotate(5.94032)"/>
</clipPath>
</defs>
</svg>
