<svg width="76" height="69" viewBox="0 0 76 69" fill="none" xmlns="http://www.w3.org/2000/svg">
<g clip-path="url(#clip0)">
<path d="M68.2441 26.4565C72.4525 35.7162 63.2925 48.9236 47.7861 55.971C32.1728 62.9783 16.1992 61.1937 12.0242 52.0074C11.7904 51.493 11.6301 50.9452 11.5032 50.4708C8.87809 41.3782 17.8911 29.213 32.5891 22.533C47.2871 15.853 62.3789 17.063 67.536 25.0935C67.703 25.461 68.0103 25.942 68.2441 26.4565Z" fill="#78CCCA"/>
<path d="M67.4292 25.0535C67.9234 27.3116 67.0748 29.7367 66.6805 32.576C66.2862 35.4153 65.1036 38.0809 62.164 39.4169C60.6942 40.0849 59.3446 41.4076 58.5294 42.9308C57.2466 45.3759 54.7279 47.0526 52.0689 47.6404C49.7373 48.168 47.3789 49.4172 45.5082 51.1541C42.4082 53.8931 39.1546 54.9284 35.4067 54.681C32.0196 54.447 28.7861 54.9412 26.0402 55.9232C22.0117 57.3994 19.0722 56.7846 16.1996 54.366C14.4493 52.8561 12.5653 52.0276 11.4297 50.5043C8.80463 41.4117 17.8176 29.2465 32.5156 22.5665C47.1802 15.813 62.272 17.023 67.4292 25.0535Z" fill="#5EC4BA"/>
<path d="M66.1065 21.7532C67.2755 24.3254 66.1997 27.031 65.7519 30.338C65.3576 33.1773 64.175 35.8428 61.2354 37.1788C59.7656 37.8468 58.416 39.1696 57.6009 40.6927C56.2446 43.1712 53.7993 44.8146 51.1403 45.4023C48.8087 45.93 46.4503 47.1792 44.5796 48.9161C41.4796 51.655 38.226 52.6904 34.4781 52.443C31.091 52.209 27.8575 52.7032 25.1451 53.7586C21.043 55.2683 18.0701 54.58 15.1975 52.1614C13.1666 50.4243 10.8551 49.4354 9.88653 47.3042C6.27933 39.3673 15.9403 27.2622 31.4468 20.2148C47.0267 13.134 62.4993 13.8163 66.1065 21.7532Z" fill="#EB5660"/>
<path d="M63.8351 16.7558C68.0435 26.0155 58.8501 39.1494 43.3437 46.1968C27.7638 53.2776 11.7902 51.493 7.6152 42.3068C7.2144 41.4249 6.96058 40.4762 6.78025 39.4941C5.27086 30.5151 14.1101 19.1382 28.0732 12.7922C42.1098 6.41283 56.4935 7.23532 62.2653 14.2771C62.8531 14.9853 63.4009 15.8004 63.8351 16.7558Z" fill="#5EC4BA"/>
<path d="M62.5658 14.9385C64.0752 23.9175 55.2359 35.2944 41.1993 41.6738C27.2362 48.0198 12.8526 47.1973 7.08077 40.1555C5.57138 31.1765 14.4106 19.7996 28.3737 13.4536C42.4103 7.07422 56.794 7.8967 62.5658 14.9385Z" fill="#78CCCA"/>
<path d="M32.569 17.2219C34.9673 19.7674 32.1276 26.2008 26.3284 31.5852C20.5627 37.0431 13.9018 39.3609 11.537 36.8889C9.1387 34.3434 11.9784 27.91 17.7775 22.5256C23.5433 17.0677 30.2042 14.7499 32.569 17.2219Z" fill="#9BD7D5"/>
<path d="M43.5388 21.4579C43.2449 21.5915 43.4787 22.1059 43.7726 21.9723C44.1067 21.7318 43.9063 21.2909 43.5388 21.4579Z" fill="#5EC4BA"/>
<path d="M45.2292 15.8128C44.2739 16.247 44.9419 17.7168 45.8972 17.2826C46.8526 16.8484 46.1846 15.3786 45.2292 15.8128Z" fill="#5EC4BA"/>
<path d="M37.5525 28.9668C36.5971 29.401 37.2985 30.9443 38.2539 30.5101C39.2827 30.0425 38.5813 28.4992 37.5525 28.9668Z" fill="#5EC4BA"/>
<path d="M26.1011 36.7426L26.0276 36.776C25.7336 36.9096 25.9674 37.4241 26.2614 37.2905L26.3349 37.2571C26.6288 37.1235 26.395 36.609 26.1011 36.7426Z" fill="#5EC4BA"/>
<path d="M34.1184 25.1187L34.0449 25.1521C33.7243 25.0318 33.5238 25.5662 33.8445 25.6865C34.0249 25.6932 34.1318 25.7333 34.3522 25.6331C34.7197 25.4661 34.4859 24.9517 34.1184 25.1187Z" fill="#5EC4BA"/>
<path d="M33.2107 13.5607C32.9167 13.6943 33.1505 14.2087 33.4445 14.0751C33.7385 13.9415 33.5047 13.4271 33.2107 13.5607Z" fill="#7AC143"/>
<path d="M31.0649 37.3242L30.8445 37.4244C29.8891 37.8585 30.5905 39.4018 31.5459 38.9676L31.7663 38.8674C32.7618 38.3264 32.0938 36.8566 31.0649 37.3242Z" fill="#5EC4BA"/>
<path d="M11.3032 37.3498C10.8356 37.2963 10.4615 37.6437 10.408 38.1113C10.3278 38.3251 10.3545 38.579 10.4547 38.7994C10.6551 39.2404 11.1562 39.3673 11.5236 39.2003C11.8911 39.0333 12.0514 38.6058 11.9579 38.2049C12.1183 37.7774 11.664 37.3631 11.3032 37.3498Z" fill="#5EC4BA"/>
<path d="M48.8894 30.1099C47.934 30.5441 48.602 32.0139 49.5574 31.5797C50.5128 31.1455 49.9182 29.6423 48.8894 30.1099Z" fill="#5EC4BA"/>
</g>
<defs>
<clipPath id="clip0">
<rect width="61.7538" height="47.3849" fill="white" transform="translate(0 25.551) rotate(-24.441)"/>
</clipPath>
</defs>
</svg>
