<svg width="24" height="24" viewBox="0 0 24 24" fill="none" xmlns="http://www.w3.org/2000/svg">
<path d="M12.1176 12.4706C14.4534 12.4706 16.3529 10.571 16.3529 8.23528C16.3529 5.89952 14.4534 4 12.1176 4C9.78185 4 7.88232 5.89952 7.88232 8.23528C7.88232 10.571 9.78185 12.4706 12.1176 12.4706ZM12.1176 6.11764C13.2855 6.11764 14.2352 7.0674 14.2352 8.23528C14.2352 9.40316 13.2855 10.3529 12.1176 10.3529C10.9497 10.3529 9.99996 9.40316 9.99996 8.23528C9.99996 7.0674 10.9497 6.11764 12.1176 6.11764Z" fill="black"/>
<path d="M17.9156 11.8253C17.4882 11.4313 16.7973 11.4313 16.3699 11.8253C14.0262 13.9862 10.2111 13.9862 7.86629 11.8253C7.43886 11.4313 6.74799 11.4313 6.32057 11.8253C5.89314 12.2194 5.89314 12.8564 6.32057 13.2515C7.68045 14.5052 9.40435 15.2198 11.1818 15.4063L8.06524 18.2797C7.63782 18.6737 7.63782 19.3107 8.06524 19.7048C8.49266 20.0989 9.18353 20.0989 9.61096 19.7048L12.1176 17.3938L14.6242 19.7048C14.8373 19.9013 15.1172 20.0001 15.397 20.0001C15.6769 20.0001 15.9567 19.9013 16.1699 19.7048C16.5973 19.3107 16.5973 18.6737 16.1699 18.2797L13.0533 15.4063C14.8308 15.2198 16.5547 14.5052 17.9145 13.2515C18.342 12.8574 18.342 12.2194 17.9156 11.8253Z" fill="black"/>
</svg>
