<svg width="64" height="58" viewBox="0 0 64 58" fill="none" xmlns="http://www.w3.org/2000/svg">
<g clip-path="url(#clip0)">
<path d="M56.9309 22.284C60.3432 30.055 52.5592 40.9769 39.5459 46.6912C26.4437 52.371 13.135 50.7112 9.74971 43.0019C9.56013 42.5702 9.43223 42.1113 9.33141 41.7142C7.23835 34.0996 14.8885 24.0457 27.2235 18.6292C39.5584 13.2128 52.1376 14.3837 56.3546 21.1393C56.4901 21.4476 56.7413 21.8523 56.9309 22.284Z" fill="#F7AD1A"/>
<path d="M56.266 21.1047C56.6542 22.9941 55.9203 25.0084 55.5609 27.3732C55.2015 29.738 54.1863 31.9494 51.7193 33.0327C50.4858 33.5743 49.3456 34.6635 48.6492 35.9257C47.5527 37.9521 45.4333 39.3242 43.2084 39.7862C41.2574 40.2015 39.2763 41.2186 37.6968 42.6478C35.081 44.8999 32.3553 45.729 29.2308 45.4825C26.4072 45.2511 23.704 45.6289 21.4024 46.4188C18.0253 47.6075 15.5793 47.0631 13.2083 45.0144C11.7641 43.7358 10.2011 43.0244 9.26981 41.7413C7.17674 34.1266 14.8269 24.0727 27.1619 18.6563C39.4697 13.1782 52.0489 14.3491 56.266 21.1047Z" fill="#EE8034"/>
<path d="M55.1975 18.3368C56.1454 20.4954 55.2189 22.7414 54.81 25.4958C54.4506 27.8606 53.4354 30.0721 50.9684 31.1553C49.7349 31.697 48.5947 32.7862 47.8983 34.0484C46.7401 36.1018 44.6823 37.4468 42.4575 37.9088C40.5064 38.3242 38.5253 39.3412 36.9459 40.7704C34.3301 43.0226 31.6043 43.8517 28.4799 43.6052C25.6562 43.3737 22.953 43.7515 20.6786 44.6031C17.2398 45.8189 14.7667 45.2128 12.3957 43.1641C10.7198 41.693 8.80176 40.8432 8.01638 39.0547C5.0915 32.3938 13.2817 22.397 26.2951 16.6827C39.3085 10.9683 52.2727 11.6759 55.1975 18.3368Z" fill="#F7ADBB"/>
<path d="M53.6221 14.2469C57.0345 22.0179 49.2234 32.8781 36.21 38.5924C23.1967 44.3068 9.88791 42.647 6.50264 34.9377C6.17765 34.1976 5.97601 33.4033 5.83605 32.582C4.63807 25.1628 12.1349 15.7648 23.8531 10.6192C35.6329 5.44649 47.6254 6.28651 52.3659 12.2237C52.8488 12.8209 53.2972 13.5068 53.6221 14.2469Z" fill="#EE8034"/>
<path d="M52.0728 12.0581C53.2091 19.5043 45.7123 28.9023 33.9324 34.075C22.2142 39.2206 10.2218 38.3806 5.50837 32.5051C4.34498 24.9972 11.8418 15.5992 23.56 10.4536C35.3399 5.2809 47.3323 6.12092 52.0728 12.0581Z" fill="#F7AD1A"/>
<path d="M27.2637 14.1977C29.2375 16.3472 26.7994 21.6846 21.9032 26.1152C17.007 30.5458 11.4517 32.4702 9.505 30.3824C7.53119 28.2328 9.96928 22.8954 14.8655 18.4648C19.7346 13.9726 25.317 12.1098 27.2637 14.1977Z" fill="#FFC928"/>
<path d="M36.3711 17.8494C36.1244 17.9577 36.3139 18.3895 36.5606 18.2811C36.8419 18.0841 36.6794 17.714 36.3711 17.8494Z" fill="#EE8034"/>
<path d="M37.8421 13.1573C37.0403 13.5094 37.609 14.8046 38.4108 14.4525C39.2126 14.1004 38.6438 12.8053 37.8421 13.1573Z" fill="#EE8034"/>
<path d="M31.2957 24.0506C30.4939 24.4027 31.0355 25.6362 31.8373 25.2841C32.6391 24.9321 32.1591 23.6715 31.2957 24.0506Z" fill="#EE8034"/>
<path d="M21.6583 30.4161L21.5966 30.4432C21.3499 30.5515 21.5395 30.9832 21.7862 30.8749L21.8479 30.8478C22.0946 30.7395 21.905 30.3078 21.6583 30.4161Z" fill="#EE8034"/>
<path d="M28.4721 20.8029C28.4721 20.8029 28.4104 20.83 28.4721 20.8029C28.1441 20.7262 27.9711 21.17 28.2374 21.2737C28.3878 21.2813 28.4766 21.3159 28.6616 21.2346C28.97 21.0992 28.7804 20.6675 28.4721 20.8029Z" fill="#EE8034"/>
<path d="M27.8379 11.1497C27.5912 11.258 27.7807 11.6898 28.0274 11.5814C28.2741 11.4731 28.0846 11.0414 27.8379 11.1497Z" fill="#EE8034"/>
<path d="M25.7937 30.9543L25.6087 31.0355C24.8069 31.3876 25.3485 32.6211 26.1503 32.269L26.3353 32.1878C27.1988 31.8086 26.6571 30.5751 25.7937 30.9543Z" fill="#EE8034"/>
<path d="M9.30491 30.7645C8.91529 30.7149 8.5994 31.0007 8.54979 31.3903C8.4806 31.5678 8.50017 31.7799 8.58142 31.965C8.74391 32.335 9.16062 32.4463 9.46899 32.3109C9.77736 32.1755 9.91573 31.8205 9.842 31.485C9.98037 31.13 9.60577 30.7795 9.30491 30.7645Z" fill="#EE8034"/>
<path d="M40.7429 25.1254C39.9412 25.4774 40.5099 26.7726 41.3117 26.4205C42.148 25.9797 41.6064 24.7462 40.7429 25.1254Z" fill="#EE8034"/>
</g>
<defs>
<clipPath id="clip0">
<rect width="51.7316" height="39.5397" fill="white" transform="translate(0 20.7991) rotate(-23.7069)"/>
</clipPath>
</defs>
</svg>
