<svg width="69" height="61" viewBox="0 0 69 61" fill="none" xmlns="http://www.w3.org/2000/svg">
<g clip-path="url(#clip0)">
<path d="M60.5456 43.2708C57.9263 52.5682 43.327 56.5791 27.929 52.2411C12.4788 47.8089 2.1202 36.7668 4.71867 27.5433C4.86419 27.0267 5.08268 26.5308 5.28038 26.1086C8.93236 17.8986 22.7922 14.5555 37.3874 18.6673C51.9827 22.7791 62.0591 32.8655 60.8676 41.8483C60.7636 42.2172 60.6911 42.7543 60.5456 43.2708Z" fill="#F281A3"/>
<path d="M60.815 41.754C59.7951 43.6967 57.7115 44.9416 55.7013 46.7646C53.6911 48.5876 51.2218 49.8035 48.3028 48.9811C46.8433 48.57 45.0715 48.708 43.5606 49.3177C41.1537 50.3122 38.3289 49.9942 36.0662 48.7993C34.0746 47.7603 31.6248 47.2295 29.2276 47.3506C25.34 47.45 22.3789 46.2176 19.8442 43.7513C17.5598 41.5149 14.9424 39.9014 12.3776 38.9399C8.59304 37.5552 6.86108 35.315 6.27464 31.8047C5.93941 29.6395 5.09378 27.888 5.20702 26.0881C8.859 17.8781 22.7188 14.535 37.3141 18.6468C51.9301 22.6848 62.0066 32.7712 60.815 41.754Z" fill="#EE5D7C"/>
<path d="M61.8758 38.5483C61.1483 41.1309 58.7312 42.441 56.3981 44.5714C54.3879 46.3944 51.9187 47.6102 48.9996 46.7879C47.5401 46.3767 45.7683 46.5147 44.2575 47.1245C41.7776 48.0984 39.0257 47.801 36.763 46.606C34.7714 45.5671 32.3216 45.0362 29.9245 45.1573C26.0368 45.2568 23.0757 44.0244 20.541 41.5581C18.2567 39.3216 15.6393 37.7082 13.0537 36.8205C9.19611 35.4151 7.48494 33.1012 6.8985 29.5909C6.50046 27.0894 5.44608 24.9606 6.04892 22.8207C8.294 14.8515 22.5815 11.9475 37.9795 16.2854C53.3775 20.6233 64.1209 30.5791 61.8758 38.5483Z" fill="#AAD7D4"/>
<path d="M63.2894 33.5306C60.6702 42.828 46.0917 46.7651 30.6937 42.4272C15.2227 38.0687 4.86406 27.0267 7.46254 17.8031C7.71199 16.9176 8.10739 16.0733 8.57578 15.2495C12.958 7.80272 26.2136 4.92656 40.0791 8.83275C53.9446 12.7389 63.8225 22.1323 63.6729 30.7715C63.6632 31.6448 63.5597 32.5714 63.2894 33.5306Z" fill="#EE5D7C"/>
<path d="M63.6728 30.7714C59.3114 38.1444 46.0557 41.0206 32.1173 37.0938C18.1788 33.1671 8.44688 23.8149 8.57564 15.2495C12.9578 7.8027 26.2135 4.92655 40.079 8.83274C53.9445 12.7389 63.8223 22.1323 63.6728 30.7714Z" fill="#F281A3"/>
<path d="M40.6049 14.795C40.7743 18.1081 34.8251 21.0516 27.3939 21.427C19.9627 21.8025 13.7592 19.4973 13.5691 16.258C13.3997 12.9448 19.3489 10.0014 26.7801 9.62593C34.2321 9.17667 40.4147 11.5556 40.6049 14.795Z" fill="#F2AEBD"/>
<path d="M45.8864 24.5661C45.5945 24.4838 45.449 25.0004 45.7409 25.0826C46.1266 25.1116 46.2513 24.6689 45.8864 24.5661Z" fill="#EE3686"/>
<path d="M50.5328 21.4944C49.5841 21.2271 49.1684 22.7029 50.1171 22.9702C51.0657 23.2374 51.4815 21.7617 50.5328 21.4944Z" fill="#EE3686"/>
<path d="M37.0284 26.3713C36.0797 26.1041 35.664 27.5799 36.6127 27.8471C37.6135 28.2087 38.0501 26.6592 37.0284 26.3713Z" fill="#EE3686"/>
<path d="M24.0927 25.0368L24.0197 25.0163C23.7278 24.934 23.5823 25.4506 23.8742 25.5328L23.9472 25.5533C24.2391 25.6356 24.3846 25.1191 24.0927 25.0368Z" fill="#EE3686"/>
<path d="M36.9102 21.4797C36.9102 21.4797 36.8372 21.4592 36.9102 21.4797C36.6807 21.1761 36.2119 21.4423 36.3684 21.7253C36.4936 21.8402 36.5458 21.9346 36.7647 21.9962C37.1296 22.099 37.2751 21.5825 36.9102 21.4797Z" fill="#EE3686"/>
<path d="M43.2922 12.5255C43.0003 12.4433 42.8548 12.9598 43.1467 13.0421C43.4386 13.1243 43.5841 12.6078 43.2922 12.5255Z" fill="#EE3686"/>
<path d="M27.2952 28.4877L27.0763 28.426C26.1276 28.1588 25.691 29.7083 26.6397 29.9756L26.8587 30.0373C27.9011 30.2513 28.3169 28.7755 27.2952 28.4877Z" fill="#EE3686"/>
<path d="M13.121 16.4503C12.8184 16.1262 12.339 16.1504 12.0161 16.4577C11.8286 16.5641 11.6933 16.7649 11.6309 16.9863C11.5062 17.429 11.7879 17.827 12.1528 17.9298C12.5177 18.0326 12.8927 17.8197 13.0697 17.4713C13.4447 17.2583 13.3713 16.6801 13.121 16.4503Z" fill="#EE3686"/>
<path d="M44.4557 34.1187C43.507 33.8514 43.0912 35.3272 44.0399 35.5944C45.0616 35.8823 45.4773 34.4065 44.4557 34.1187Z" fill="#EE3686"/>
</g>
<defs>
<clipPath id="clip0">
<rect width="58" height="45" fill="white" transform="translate(12.2021 0.979248) rotate(15.7336)"/>
</clipPath>
</defs>
</svg>
