<svg width="69" height="61" viewBox="0 0 69 61" fill="none" xmlns="http://www.w3.org/2000/svg">
<g clip-path="url(#clip0)">
<path d="M63.6496 26.5246C66.5911 35.7251 56.6234 47.1213 41.3859 51.9929C26.0528 56.8147 11.3226 53.3148 8.40441 44.1873C8.24099 43.6762 8.14979 43.142 8.08193 42.6807C6.60152 33.8179 16.3205 23.3866 30.7637 18.7689C45.2069 14.1512 59.1747 17.0095 63.1338 25.1603C63.2505 25.5254 63.4862 26.0135 63.6496 26.5246Z" fill="#F281A3"/>
<path d="M63.038 25.1104C63.2584 27.2935 62.2066 29.4809 61.5348 32.1102C60.8631 34.7394 59.4736 37.1153 56.5849 38.0389C55.1406 38.5006 53.7386 39.5927 52.8144 40.9345C51.3549 43.0913 48.8229 44.3837 46.2764 44.6345C44.0421 44.8659 41.7056 45.7739 39.7726 47.1967C36.5842 49.4234 33.4344 50.028 29.96 49.3682C26.8211 48.762 23.7478 48.8593 21.078 49.4714C17.1572 50.403 14.4771 49.4892 12.0523 46.8842C10.5787 45.2627 8.90749 44.2678 8.00947 42.7038C6.52906 33.841 16.248 23.4097 30.6912 18.792C45.111 14.1013 59.0789 16.9596 63.038 25.1104Z" fill="#EE5D7C"/>
<path d="M62.1555 21.8513C62.9726 24.407 61.6786 26.8328 60.9069 29.8965C60.2352 32.5257 58.8456 34.9016 55.957 35.8251C54.5127 36.2869 53.1107 37.379 52.1865 38.7208C50.6547 40.9007 48.195 42.17 45.6485 42.4207C43.4142 42.6522 41.0777 43.5602 39.1447 44.983C35.9563 47.2096 32.8065 47.8143 29.3321 47.1544C26.1932 46.5483 23.1199 46.6456 20.4735 47.3307C16.4804 48.2854 13.777 47.2986 11.3522 44.6935C9.64078 42.8262 7.5873 41.6316 6.91028 39.514C4.38897 31.6279 14.7068 21.327 29.9444 16.4553C45.182 11.5837 59.6341 13.9652 62.1555 21.8513Z" fill="#AAD7D4"/>
<path d="M60.568 16.886C63.5095 26.0865 53.5185 37.4096 38.2809 42.2813C22.9711 47.176 8.24096 43.6761 5.32277 34.5487C5.04263 33.6724 4.90691 32.75 4.84342 31.8045C4.39302 23.1758 13.8655 13.4672 27.5865 9.08035C41.3075 4.69353 54.7275 7.08311 59.3664 14.3727C59.8399 15.1067 60.2645 15.9367 60.568 16.886Z" fill="#EE5D7C"/>
<path d="M59.3662 14.3727C59.7932 22.9284 50.3208 32.637 36.5276 37.0469C22.7343 41.4568 9.45875 39.0211 4.84318 31.8045C4.39278 23.1757 13.8652 13.4671 27.5862 9.08031C41.3073 4.6935 54.7273 7.08308 59.3662 14.3727Z" fill="#F281A3"/>
<path d="M31.3127 13.7644C33.2808 16.4349 29.9409 22.1708 23.9485 26.5817C17.9561 30.9925 11.5099 32.4901 9.56507 29.8925C7.59688 27.2219 10.9369 21.486 16.9292 17.0752C22.8983 12.5913 29.3678 11.1668 31.3127 13.7644Z" fill="#F2AEBD"/>
<path d="M41.1068 19.0032C40.8179 19.0956 40.9813 19.6067 41.2702 19.5144C41.6079 19.3259 41.4679 18.8878 41.1068 19.0032Z" fill="#EE3686"/>
<path d="M43.2891 13.8791C42.3503 14.1793 42.8172 15.6397 43.756 15.3395C44.6948 15.0394 44.2279 13.579 43.2891 13.8791Z" fill="#EE3686"/>
<path d="M34.7124 25.3938C33.7736 25.6939 34.2405 27.1543 35.1793 26.8542C36.2137 26.604 35.7234 25.0705 34.7124 25.3938Z" fill="#EE3686"/>
<path d="M23.1849 31.4133L23.1126 31.4363C22.8238 31.5287 22.9872 32.0398 23.2761 31.9475L23.3483 31.9244C23.6371 31.832 23.4737 31.3209 23.1849 31.4133Z" fill="#EE3686"/>
<path d="M31.9165 21.3783C31.9165 21.3783 31.8443 21.4014 31.9165 21.3783C31.5576 21.2516 31.3132 21.7322 31.5999 21.882C31.7677 21.9088 31.8633 21.9588 32.0799 21.8895C32.441 21.774 32.2776 21.2629 31.9165 21.3783Z" fill="#EE3686"/>
<path d="M32.3031 10.3892C32.0142 10.4816 32.1776 10.9927 32.4665 10.9004C32.7554 10.808 32.5919 10.2969 32.3031 10.3892Z" fill="#EE3686"/>
<path d="M27.7596 32.5262L27.543 32.5954C26.6042 32.8956 27.0944 34.429 28.0332 34.1289L28.2499 34.0596C29.2376 33.6633 28.7706 32.2029 27.7596 32.5262Z" fill="#EE3686"/>
<path d="M9.29769 30.3C8.86657 30.1964 8.47997 30.481 8.38005 30.9153C8.2823 31.1076 8.28013 31.3497 8.35016 31.5688C8.49023 32.0069 8.9447 32.1835 9.30578 32.0681C9.66686 31.9526 9.86234 31.5682 9.81783 31.18C10.0133 30.7956 9.63324 30.3537 9.29769 30.3Z" fill="#EE3686"/>
<path d="M45.1802 27.7615C44.2414 28.0616 44.7083 29.522 45.6471 29.2219C46.6581 28.8986 46.1912 27.4382 45.1802 27.7615Z" fill="#EE3686"/>
</g>
<defs>
<clipPath id="clip0">
<rect width="58" height="45" fill="white" transform="translate(0 17.9001) rotate(-17.7298)"/>
</clipPath>
</defs>
</svg>
